<svg xmlns="http://www.w3.org/2000/svg" viewBox="0 0 246.34 41.71">
  <defs>
    <style>
      .cls-1{fill:#0087ff;}
      .cls-2{fill:#0087ff;}
    </style>
  </defs>
  <g id="Layer_2" data-name="Layer 2">
    <g id="Solutions_Landing" data-name="Solutions Landing">
      <path class="cls-1" d="M99.39,14.21v-4C99.39,3.73,96.13,0,89.84,0s-9.55,3.73-9.55,10.25V24.14h0v7.31c0,6.53,3.26,10.26,9.55,10.26S99.39,38,99.39,31.45V26H93.33v5.82c0,2.91-1.28,4-3.32,4s-3.32-1-3.32-4V24.53h0V9.84c0-2.91,1.28-4,3.32-4s3.32,1.1,3.32,4v4.37Z"/>
      <path class="cls-1" d="M27.61,20.82c2.85-1.34,4.14-4.58,4.14-8.77V9.84c0-6.29-2.86-9.37-9.5-9.37H12.58v17.3H19v6.37H12.58v17.1H22.66c6.41,0,9.73-3.38,9.73-9.67v-2c0-4.31-1.34-7.4-4.78-8.74ZM19,6.29h3.09c2.27,0,3.26,1.28,3.26,4.19v3c0,3.26-1.46,4.26-3.85,4.26H19ZM26,31.4c0,3-1.17,4-3.32,4H19V24.14h2.9c2.91,0,4.09,1.22,4.09,5Z"/>
      <polygon class="cls-1" points="43.51 35.41 43.51 25.79 43.51 25.79 43.51 0.47 37.1 0.47 37.1 24.14 37.1 24.14 37.1 41.24 54.05 41.24 54.05 35.41 43.51 35.41"/>
      <path class="cls-1" d="M65.6,0c-6.29,0-9.72,3.73-9.72,10.25v21.2c0,6.53,3.43,10.26,9.72,10.26S75.33,38,75.33,31.45V10.25C75.33,3.73,71.9,0,65.6,0Zm3.33,31.86c0,2.91-1.29,4-3.33,4s-3.31-1.11-3.31-4v-22c0-2.91,1.28-4,3.31-4s3.33,1.1,3.33,4Z"/>
      <polygon class="cls-1" points="125.68 0.47 119.27 0.47 110.89 17.77 110.89 0.47 104.48 0.47 104.48 24.57 104.48 24.57 104.48 41.24 110.89 41.24 110.89 27.87 110.88 24.57 110.89 24.57 110.89 21.19 119.1 41.24 125.68 41.24 116.77 19.3 125.68 0.47"/>
      <path class="cls-2" d="M138.51,24.14h2.92v7.72c0,2.91-1.29,4-3.32,4s-3.32-1-3.32-4V24.14h-6.41v7.31c0,6.53,3.26,10.26,9.55,10.26s9.55-3.73,9.55-10.26V17.77h-9Z"/>
      <path class="cls-2" d="M137.93,0c-6.29,0-9.55,3.73-9.55,10.25v7.52h6.41V9.84c0-2.91,1.28-4,3.32-4s3.32,1.1,3.32,4v4.37h6v-4C147.48,3.73,144.22,0,137.93,0Z"/>
      <path class="cls-2" d="M173.12,29.53c0-4.25-1.05-7.62-4.25-9,2.85-1.34,4.19-4.36,4.19-8.55V9.84c0-6.29-2.85-9.37-9.5-9.37H153.9V41.24h6.4V24.14h2.22c2.91,0,4.19,1.43,4.19,5.21v6.88c0,3.32.23,4,.58,5h6.53a12,12,0,0,1-.7-5Zm-6.47-16.06c0,3.27-1.45,4.31-3.84,4.31H160.3V6.29h3.09c2.27,0,3.26,1.28,3.26,4.2Z"/>
      <rect class="cls-2" y="17.77" width="6.37" height="6.37"/>
      <polygon class="cls-2" points="239.81 0.47 239.81 24.14 239.81 25.12 239.81 41.24 246.34 41.24 246.34 25.12 246.34 24.14 246.34 0.47 239.81 0.47"/>
      <polygon class="cls-2" points="232.53 0.47 226.12 0.47 226.12 41.24 232.53 41.24 232.53 24.14 239.81 24.14 239.81 17.77 232.53 17.77 232.53 0.47"/>
      <path class="cls-2" d="M196.65,24.14,192.86.47h-9.38L177,41.24h5.88l1.11-7.4h7.86l1.11,7.4h6.47Zm-11.88,4.17,3.08-20.62,2.47,16.45.62,4.17Z"/>
      <path class="cls-2" d="M212.82.47h-9.43V24.14h0v17.1h6.4V24.14h3c6.41,0,9.56-4.11,9.56-10.64v-3C222.38,4,219.23.47,212.82.47ZM216,13.91c0,2.91-1.11,3.86-3.15,3.86h-3V6.29h3c2,0,3.15.93,3.15,3.85Z"/>
    </g>
  </g>
</svg>